<svg viewBox="0 0 800 800" xmlns="http://www.w3.org/2000/svg"><path d="M325.547224237534,401.70874093690475 L325.5472225794559,401.70859988326623 M326.5658535734291,400.54197445286053 L326.5658519404729,400.54183358056946 M325.547224237534,401.70874093690475 L325.59679732660675,401.2971077257696 M325.59679732660675,401.2971077257696 L325.94177267858385,400.90226949941064 M325.94177267858385,400.90226949941064 L326.5658535734291,400.54197445286053 M325.5472225794559,401.70859988326623 L325.5967956704935,401.29696673610147 M325.5967956704935,401.29696673610147 L325.9417710309808,400.90212857111163 M325.9417710309808,400.90212857111163 L326.5658519404729,400.54183358056946 M354.5400069687162,395.52692507373905 L354.54000596513276,395.526784981795 M326.5658535734291,400.54197445286053 L330.12945226898955,399.09202368702313 M330.12945226898955,399.09202368702313 L333.73971764473043,397.8841561469347 M333.73971764473043,397.8841561469347 L337.08517798484314,396.98929334633937 M337.08517798484314,396.98929334633937 L340.3407891833639,396.3175925832702 M340.3407891833639,396.3175925832702 L343.52564613766845,395.84388706820346 M343.52564613766845,395.84388706820346 L346.6648285028815,395.5487829603641 M346.6648285028815,395.5487829603641 L349.78852757433623,395.41943317685485 M349.78852757433623,395.41943317685485 L352.15581189345073,395.4278009067002 M352.15581189345073,395.4278009067002 L354.5400069687162,395.52692507373905 M326.5658519404729,400.54183358056946 L330.12945071823646,399.0918830402008 M330.12945071823646,399.0918830402008 L333.7397161764756,397.8840156880269 M333.7397161764756,397.8840156880269 L337.0851765924208,396.9891530267033 M337.0851765924208,396.9891530267033 L340.3407878642427,396.31745236820353 M340.3407878642427,396.31745236820353 L343.525644889846,395.8437469268979 M343.525644889846,395.8437469268979 L346.66482732499526,395.5486428650159 M346.66482732499526,395.5486428650159 L349.7885264657585,395.41929310165204 M349.7885264657585,395.41929310165204 L352.1558108372402,395.42766083019416 M352.1558108372402,395.42766083019416 L354.54000596513276,395.526784981795 M388.4669163581506,407.7675633521077 L388.46691610140726,407.7674213579924 M354.5400069687162,395.52692507373905 L357.9334473935058,395.83020610955685 M357.9334473935058,395.83020610955685 L361.2336105235278,396.3147246208214 M361.2336105235278,396.3147246208214 L364.7775534933819,397.0454129055526 M364.7775534933819,397.0454129055526 L368.44635714375505,398.0340850073334 M368.44635714375505,398.0340850073334 L372.26119546300646,399.31612141104284 M372.26119546300646,399.31612141104284 L376.2343149175224,400.93119955363863 M376.2343149175224,400.93119955363863 L380.36837444290603,402.9210350274493 M380.36837444290603,402.9210350274493 L384.5644186741619,405.27179781732065 M384.5644186741619,405.27179781732065 L388.4669163581506,407.7675633521077 M354.54000596513276,395.526784981795 L357.9334464646583,395.8300659703818 M357.9334464646583,395.8300659703818 L361.23360966721145,396.3145844062013 M361.23360966721145,396.3145844062013 L364.77755271484716,397.045272577181 M364.77755271484716,397.045272577181 L368.4463564456904,398.0339445250959 M368.4463564456904,398.0339445250959 L372.26119484863386,399.3159807293653 M372.26119484863386,399.3159807293653 L376.2343143904205,400.9310586208429 M376.2343143904205,400.9310586208429 L380.3683740068231,402.9208937854682 M380.3683740068231,402.9208937854682 L384.5644183307927,405.2716562103591 M384.5644183307927,405.2716562103591 L388.46691610140726,407.7674213579924 M375.77963750400534,382.44611076965504 L375.7796369792958,382.44597271975016 M388.4669163581506,407.7675633521077 L375.77963750400534,382.44611076965504 M388.46691610140726,407.7674213579924 L375.7796369792958,382.44597271975016 M377.1758055906837,381.05026676103495 L377.17580509724775,381.05012892960224 M375.77963750400534,382.44611076965504 L375.72907116935477,382.06764493615987 M375.72907116935477,382.06764493615987 L375.9456882926342,381.7051104185613 M375.9456882926342,381.7051104185613 L376.4054788473456,381.3716854186131 M376.4054788473456,381.3716854186131 L376.7586149130483,381.20327059215475 M376.7586149130483,381.20327059215475 L377.1758055906837,381.05026676103495 M375.7796369792958,382.44597271975016 L375.72907064380183,382.0675069454802 M375.72907064380183,382.0675069454802 L375.9456877720367,381.70497248462135 M375.9456877720367,381.70497248462135 L376.4054783369643,381.3715475368635 M376.4054783369643,381.3715475368635 L376.75861441045055,381.2031327367692 M376.75861441045055,381.2031327367692 L377.17580509724775,381.05012892960224 M378.9024271994574,380.68968722878435 L378.90242674374025,380.6895494538061 M377.1758055906837,381.05026676103495 L378.9024271994574,380.68968722878435 M377.17580509724775,381.05012892960224 L378.90242674374025,380.6895494538061 M384.75293278599315,381.3414580109822 L384.75293245702574,381.34132013396436 M378.9024271994574,380.68968722878435 L380.0796944709058,380.59728775095346 M380.0796944709058,380.59728775095346 L381.25627820554564,380.6007655865087 M381.25627820554564,380.6007655865087 L382.3824579078564,380.69460473593176 M382.3824579078564,380.69460473593176 L383.40842914383586,380.87334607488174 M383.40842914383586,380.87334607488174 L384.14632836513584,381.08168841116196 M384.14632836513584,381.08168841116196 L384.75293278599315,381.3414580109822 M378.90242674374025,380.6895494538061 L380.07969404080103,380.5971499904429 M380.07969404080103,380.5971499904429 L381.2562778009822,380.6006278254536 M381.2562778009822,380.6006278254536 L382.3824575276958,380.69446696018355 M382.3824575276958,380.69446696018355 L383.40842878586864,380.8732082711479 M383.40842878586864,380.8732082711479 L384.1463280231016,381.08155057481014 M384.1463280231016,381.08155057481014 L384.75293245702574,381.34132013396436 M426.6034611560024,403.74224109839247 L426.60346175327834,403.74209972887525 M384.75293278599315,381.3414580109822 L426.6034611560024,403.74224109839247 M384.75293245702574,381.34132013396436 L426.60346175327834,403.74209972887525 M410.8282235575917,378.1935024880759 L410.828223794285,378.1933651041146 M426.6034611560024,403.74224109839247 L410.8282235575917,378.1935024880759 M426.60346175327834,403.74209972887525 L410.828223794285,378.1933651041146 M355.06495118051936,383.9011989287884 L355.06495020319466,383.9010606512552 M410.8282235575917,378.1935024880759 L404.803175742089,377.9435177734853 M404.803175742089,377.9435177734853 L398.8016856237728,377.88077562935763 M398.8016856237728,377.88077562935763 L392.7856582654566,378.0043912884325 M392.7856582654566,378.0043912884325 L386.83695788059845,378.31448709163857 M386.83695788059845,378.31448709163857 L381.000458537637,378.80912591887113 M381.000458537637,378.80912591887113 L375.8814948382013,379.4095024186584 M375.8814948382013,379.4095024186584 L370.92361779175656,380.1537084198536 M370.92361779175656,380.1537084198536 L366.1584450659246,381.03798517464537 M366.1584450659246,381.03798517464537 L361.61578646465745,382.05807914074234 M361.61578646465745,382.05807914074234 L358.2667347938092,382.9389477527226 M358.2667347938092,382.9389477527226 L355.06495118051936,383.9011989287884 M410.828223794285,378.1933651041146 L404.80317584835365,377.9433804287024 M404.80317584835365,377.9433804287024 L398.80168560019723,377.88063829440836 M398.80168560019723,377.88063829440836 L392.7856581117103,378.00425393410893 M392.7856581117103,378.00425393410893 L386.83695759802816,378.31434968871747 M386.83695759802816,378.31434968871747 L381.0004581284707,378.80898843844244 M381.0004581284707,378.80898843844244 L375.88149431775685,379.40936484417205 M375.88149431775685,379.40936484417205 L370.9236171632386,380.15357072880465 M370.9236171632386,380.15357072880465 L366.1584443331781,381.0378473451355 M366.1584443331781,381.0378473451355 L361.6157856321386,382.05794115155965 M361.6157856321386,382.05794115155965 L358.2667338874163,382.93880962570694 M358.2667338874163,382.93880962570694 L355.06495020319466,383.9010606512552 M336.5462897597148,395.1301914935817 L336.546288358654,395.13005146343005 M355.06495118051936,383.9011989287884 L350.8471961921682,385.38731377781016 M350.8471961921682,385.38731377781016 L347.09225013566083,386.9876136929592 M347.09225013566083,386.9876136929592 L343.8085466658393,388.69889195479783 M343.8085466658393,388.69889195479783 L341.28034662562777,390.32357518838165 M341.28034662562777,390.32357518838165 L339.1726704839601,392.0206948805444 M339.1726704839601,392.0206948805444 L337.6906176791985,393.5522392049834 M337.6906176791985,393.5522392049834 L336.5462897597148,395.1301914935817 M355.06495020319466,383.9010606512552 L350.84719512083853,385.3871752679177 M350.84719512083853,385.3871752679177 L347.09224897993363,386.98747493299305 M347.09224897993363,386.98747493299305 L343.8085454355383,388.69875292757484 M343.8085454355383,388.69875292757484 L341.2803453371897,390.32343590757813 M341.2803453371897,390.32343590757813 L339.172669146294,392.02055533501283 M339.172669146294,392.02055533501283 L337.6906163062055,393.55209942069024 M337.6906163062055,393.55209942069024 L336.546288358654,395.13005146343005 M330.6953604465482,396.4675871169546 L330.69535891347715,396.46744687853476 M336.5462897597148,395.1301914935817 L336.1552208573917,395.520488614461 M336.1552208573917,395.520488614461 L335.51267077669326,395.85901978254657 M335.51267077669326,395.85901978254657 L334.6624440610213,396.1355340121144 M334.6624440610213,396.1355340121144 L333.64855102354375,396.3397828572412 M333.64855102354375,396.3397828572412 L332.51519473102826,396.46153247148993 M332.51519473102826,396.46153247148993 L331.61696238749425,396.49255043244716 M331.61696238749425,396.49255043244716 L330.6953604465482,396.4675871169546 M336.546288358654,395.13005146343005 L336.1552194469824,395.5203485235194 M336.1552194469824,395.5203485235194 L335.5126693514527,395.85887963888456 M335.5126693514527,395.85887963888456 L334.66244261645136,396.1353938253948 M334.66244261645136,396.1353938253948 L333.6485495561398,396.33964263871957 M333.6485495561398,396.33964263871957 L332.51519323828796,396.46139223401275 M332.51519323828796,396.46139223401275 L331.61696087479385,396.49241019014084 M331.61696087479385,396.49241019014084 L330.69535891347715,396.46744687853476 M326.84100014339197,394.5642254419993 L326.84099852883253,394.5640855000141 M330.6953604465482,396.4675871169546 L329.52732114916813,396.347748422976 M329.52732114916813,396.347748422976 L328.52494562772824,396.14312054879196 M328.52494562772824,396.14312054879196 L327.7174624691744,395.8681554537383 M327.7174624691744,395.8681554537383 L327.13388933892975,395.53731032745543 M327.13388933892975,395.53731032745543 L326.8030661459114,395.1650238534249 M326.8030661459114,395.1650238534249 L326.73795560024297,394.8691635014276 M326.73795560024297,394.8691635014276 L326.84100014339197,394.5642254419993 M330.69535891347715,396.46744687853476 L329.52731959045565,396.3476082032141 M329.52731959045565,396.3476082032141 L328.5249440472213,396.14298036089104 M328.5249440472213,396.14298036089104 L327.71746087134227,395.8680153086536 M327.71746087134227,395.8680153086536 L327.13388772885446,395.53717023389396 M327.13388772885446,395.53717023389396 L326.8030645292797,395.1648838178477 M326.8030645292797,395.1648838178477 L326.73795398277923,394.8690235119367 M326.73795398277923,394.8690235119367 L326.84099852883253,394.5640855000141 M348.31072790435724,381.6497932249493 L348.3107267830372,381.64965529966764 M326.84100014339197,394.5642254419993 L328.46950481116585,392.41928900863877 M328.46950481116585,392.41928900863877 L330.6377777565196,390.35208297815456 M330.6377777565196,390.35208297815456 L333.3386453028196,388.3627992685996 M333.3386453028196,388.3627992685996 L336.5498486390149,386.4655664599049 M336.5498486390149,386.4655664599049 L339.8605877975279,384.8443700244234 M339.8605877975279,384.8443700244234 L343.5548379977396,383.3116978086343 M343.5548379977396,383.3116978086343 L345.8711617429415,382.46445498936475 M345.8711617429415,382.46445498936475 L348.31072790435724,381.6497932249493 M326.84099852883253,394.5640855000141 L328.4695032369038,392.4191494009554 M328.4695032369038,392.4191494009554 L330.6377762340723,390.35194369290286 M330.6377762340723,390.35194369290286 L333.33864384346697,388.3626602938525 M333.33864384346697,388.3626602938525 L336.5498472534532,386.46542778150155 M336.5498472534532,386.46542778150155 L339.8605864871211,384.8442315994077 M339.8605864871211,384.8442315994077 L343.55483677040013,383.3115596233059 M343.55483677040013,383.3115596233059 L345.871160567351,382.4643169365895 M345.871160567351,382.4643169365895 L348.3107267830372,381.64965529966764 M408.8172127543456,374.93288925552434 L408.81721294669893,374.93275238285196 M348.31072790435724,381.6497932249493 L353.22240409555496,380.2124248904102 M353.22240409555496,380.2124248904102 L358.4182203260566,378.9388267372408 M358.4182203260566,378.9388267372408 L363.93971229867657,377.81699642123175 M363.93971229867657,377.81699642123175 L369.7186553792647,376.8619105487072 M369.7186553792647,376.8619105487072 L375.71868410262,376.07897339217334 M375.71868410262,376.07897339217334 L381.900871778493,375.4730625340368 M381.900871778493,375.4730625340368 L387.58681469387966,375.08253053806635 M387.58681469387966,375.08253053806635 L393.35651470764645,374.8411123355672 M393.35651470764645,374.8411123355672 L399.17968381437396,374.7504974891935 M399.17968381437396,374.7504974891935 L403.9898773885368,374.78979154833365 M403.9898773885368,374.78979154833365 L408.8172127543456,374.93288925552434 M348.3107267830372,381.64965529966764 L353.22240308289526,380.212287190166 M353.22240308289526,380.212287190166 L358.41821942762357,378.9386892364909 M358.41821942762357,378.9386892364909 L363.93971152098857,377.8168590962789 M363.93971152098857,377.8168590962789 L369.7186547273932,376.86177337347743 M369.7186547273932,376.86177337347743 L375.7186835809084,376.0788363397182 M375.7186835809084,376.0788363397182 L381.90087139051536,375.47292557661984 M381.90087139051536,375.47292557661984 L387.58681442865765,375.0823936419159 M387.58681442865765,375.0823936419159 L393.3565145668324,374.8409754772947 M393.3565145668324,374.8409754772947 L399.17968379903834,374.7503606451391 M399.17968379903834,374.7503606451391 L403.98987747684265,374.78965469811374 M403.98987747684265,374.78965469811374 L408.81721294669893,374.93275238285196 M408.54982765487875,374.50203301764407 L408.54982784136496,374.50189621257783 M408.8172127543456,374.93288925552434 L408.54982765487875,374.50203301764407 M408.81721294669893,374.93275238285196 L408.54982784136496,374.50189621257783 M412.3266928158713,372.6778038126454 L412.3266930830674,372.6776672939371 M408.54982765487875,374.50203301764407 L408.4618214096999,374.11603884950125 M408.4618214096999,374.11603884950125 L408.66057664884687,373.74789905295535 M408.66057664884687,373.74789905295535 L409.1172696339389,373.41126268460454 M409.1172696339389,373.41126268460454 L409.80321103664716,373.11973038491277 M409.80321103664716,373.11973038491277 L410.68988294754564,372.8868831400352 M410.68988294754564,372.8868831400352 L411.4660761536311,372.7593673431113 M411.4660761536311,372.7593673431113 L412.3266928158713,372.6778038126454 M408.54982784136496,374.50189621257783 L408.4618215941976,374.11590210501083 M408.4618215941976,374.11590210501083 L408.66057683753263,373.74776236624643 M408.66057683753263,373.74776236624643 L409.1172698323642,373.41112605073926 M409.1172698323642,373.41112605073926 L409.80321124974415,373.1195937968158 M409.80321124974415,373.1195937968158 L410.68988317963493,372.8867465884971 M410.68988317963493,372.8867465884971 L411.46607640236164,372.7592308115955 M411.46607640236164,372.7592308115955 L412.3266930830674,372.6776672939371 M418.00214583113495,373.90371137360074 L418.00214622090357,373.90357466243535 M412.3266928158713,372.6778038126454 L413.5177667599925,372.6507734005753 M413.5177667599925,372.6507734005753 L414.6568090998285,372.7159322090165 M414.6568090998285,372.7159322090165 L415.7015955509281,372.8641056703395 M415.7015955509281,372.8641056703395 L416.609755644204,373.0861701444298 M416.609755644204,373.0861701444298 L417.33876616938466,373.3730215968539 M417.33876616938466,373.3730215968539 L417.7415936591232,373.6246726491332 M417.7415936591232,373.6246726491332 L418.00214583113495,373.90371137360074 M412.3266930830674,372.6776672939371 L413.517767052771,372.65063688611144 M413.517767052771,372.65063688611144 L414.65680941710764,372.71579568432094 M414.65680941710764,372.71579568432094 L415.70159589072364,372.86396912237785 M415.70159589072364,372.86396912237785 L416.60975600362224,373.0860335616019 M416.60975600362224,373.0860335616019 L417.33876654461613,373.3728849689918 M417.33876654461613,373.3728849689918 L417.7415940431443,373.62453598176694 M417.7415940431443,373.62453598176694 L418.00214622090357,373.90357466243535 M442.1953556426682,412.29124262556735 L442.1953565987377,412.29109993061184 M418.00214583113495,373.90371137360074 L442.1953556426682,412.29124262556735 M418.00214622090357,373.90357466243535 L442.1953565987377,412.29109993061184 M439.1653013572416,414.2240676829148 L439.16530224696453,414.2239246888632 M442.1953556426682,412.29124262556735 L442.3053504918472,412.7160598520917 M442.3053504918472,412.7160598520917 L442.1119487032115,413.1245240359613 M442.1119487032115,413.1245240359613 L441.6404343061474,413.5002484782986 M441.6404343061474,413.5002484782986 L440.91623533985535,413.82679144652747 M440.91623533985535,413.82679144652747 L440.1157393481314,414.05460207723456 M440.1157393481314,414.05460207723456 L439.1653013572416,414.2240676829148 M442.1953565987377,412.29109993061184 L442.3053514509089,412.71591709137965 M442.3053514509089,412.71591709137965 L442.1119496583846,413.12438121203354 M442.1119496583846,413.12438121203354 L441.64043525109395,413.50010559623024 M441.64043525109395,413.50010559623024 L440.9162362687867,413.82664851393537 M440.9162362687867,413.82664851393537 L440.1157402591944,414.0544591093985 M440.1157402591944,414.0544591093985 L439.16530224696453,414.2239246888632 M432.96910451874135,413.52208928526386 L432.9691052674412,413.52194639981604 M439.1653013572416,414.2240676829148 L437.9488326473296,414.32929260290183 M437.9488326473296,414.32929260290183 L436.7221871359165,414.3301554692416 M436.7221871359165,414.3301554692416 L435.53858466166224,414.23256848944027 M435.53858466166224,414.23256848944027 L434.45116230869576,414.0425117395557 M434.45116230869576,414.0425117395557 L433.6394650692056,413.8118571412689 M433.6394650692056,413.8118571412689 L432.96910451874135,413.52208928526386 M439.16530224696453,414.2239246888632 L437.94883350960686,414.3291495925732 M437.94883350960686,414.3291495925732 L436.72218797040216,414.3300124587795 M436.72218797040216,414.3300124587795 L435.5385854692329,414.2324254940736 M435.5385854692329,414.2324254940736 L434.4511630914468,414.04236877359017 M434.4511630914468,414.04236877359017 L433.63946583335354,413.81171421098736 M433.63946583335354,413.81171421098736 L432.9691052674412,413.52194639981604 M389.62259726200455,390.135867599283 L389.62259703631986,390.1357283477693 M432.96910451874135,413.52208928526386 L389.62259726200455,390.135867599283 M432.9691052674412,413.52194639981604 L389.62259703631986,390.1357283477693 M405.43097413682335,420.9008084492448 L405.43097426335635,420.9006644236119 M389.62259726200455,390.135867599283 L405.43097413682335,420.9008084492448 M389.62259703631986,390.1357283477693 L405.43097426335635,420.9006644236119 M446.4782788389101,414.3730163920335 L446.4782798944988,414.3728733749415 M405.43097413682335,420.9008084492448 L411.7652104339969,420.6168371971969 M411.7652104339969,420.6168371971969 L417.93558262595843,420.1308780617938 M417.93558262595843,420.1308780617938 L423.9341519808922,419.4443790958359 M423.9341519808922,419.4443790958359 L429.1286296220659,418.6611313195348 M429.1286296220659,418.6611313195348 L434.0939784924551,417.7267812398064 M434.0939784924551,417.7267812398064 L438.7978529607542,416.6475013998444 M438.7978529607542,416.6475013998444 L442.75895055849696,415.5649059211552 M442.75895055849696,415.5649059211552 L446.4782788389101,414.3730163920335 M405.43097426335635,420.9006644236119 L411.7652107051215,420.6166932153876 M411.7652107051215,420.6166932153876 L417.9355830377307,420.13073415499025 M417.9355830377307,420.13073415499025 L423.93415252908983,419.44423529501324 M423.93415252908983,419.44423529501324 L429.1286302880596,418.6609876396611 M429.1286302880596,418.6609876396611 L434.0939792706567,417.72663770426016 M434.0939792706567,417.72663770426016 L438.7978538448021,416.64735803107357 M438.7978538448021,416.64735803107357 L442.7589515312467,415.5647627197381 M442.7589515312467,415.5647627197381 L446.4782798944988,414.3728733749415 M444.7180312214292,383.9018935738394 L444.7180321987557,383.90175529619756 M446.4782788389101,414.3730163920335 L450.6274915527555,412.7879679891051 M450.6274915527555,412.7879679891051 L454.2271283616579,411.110451924121 M454.2271283616579,411.110451924121 L457.34688525788255,409.31167812493754 M457.34688525788255,409.31167812493754 L459.92408149724747,407.4235999182163 M459.92408149724747,407.4235999182163 L461.94162604487553,405.46096549917706 M461.94162604487553,405.46096549917706 L463.38399561058566,403.44063788450416 M463.38399561058566,403.44063788450416 L464.2389773121984,401.38147677722355 M464.2389773121984,401.38147677722355 L464.49930457143165,399.30394571383147 M464.49930457143165,399.30394571383147 L464.224153125096,397.4361364674908 M464.224153125096,397.4361364674908 L463.4704471441613,395.58678233490457 M463.4704471441613,395.58678233490457 L462.24672637609626,393.7711543324333 M462.24672637609626,393.7711543324333 L460.56540727887113,392.0035664096226 M460.56540727887113,392.0035664096226 L458.4419013948843,390.296983525622 M458.4419013948843,390.296983525622 L455.8935347582029,388.66276811553007 M455.8935347582029,388.66276811553007 L452.93833532122596,387.11059400326747 M452.93833532122596,387.11059400326747 L449.5939158192006,385.64850043147766 M449.5939158192006,385.64850043147766 L447.2405900490524,384.7573194647553 M447.2405900490524,384.7573194647553 L444.7180312214292,383.9018935738394 M446.4782798944988,414.3728733749415 L450.6274927000997,412.7878252172635 M450.6274927000997,412.7878252172635 L454.2271295878433,411.11030941199095 M454.2271295878433,411.11030941199095 L457.3468865515674,409.3115358914679 M457.3468865515674,409.3115358914679 L459.92408284577675,407.4234579774372 M459.92408284577675,407.4234579774372 L461.94162743530376,405.4608238628588 M461.94162743530376,405.4608238628588 L463.38399702973055,403.44049656182244 M463.38399702973055,403.44049656182244 L464.2389787467304,401.3813357744431 M464.2389787467304,401.3813357744431 L464.499306007996,399.30380503404757 M464.499306007996,399.30380503404757 L464.2241545521663,397.4359960783048 M464.2241545521663,397.4359960783048 L463.47044855120873,395.5866422336384 M463.47044855120873,395.5866422336384 L462.246727752881,393.7710145140229 M462.246727752881,393.7710145140229 L460.56540861551963,392.00342686676214 M460.56540861551963,392.00342686676214 L458.4419026819445,390.2968442489678 M458.4419026819445,390.2968442489678 L455.8935359866732,388.6626290939471 M455.8935359866732,388.6626290939471 L452.9383364825571,387.1104552240895 M452.9383364825571,387.1104552240895 L449.5939169052721,385.64836188076055 M449.5939169052721,385.64836188076055 L447.2405910825148,384.75718105334954 M447.2405910825148,384.75718105334954 L444.7180321987557,383.90175529619756 M427.9589392159783,380.00805691144353 L427.9589398248457,380.00791924320515 M444.7180312214292,383.9018935738394 L440.5847022918395,382.6823921968304 M440.5847022918395,382.6823921968304 L436.1889184077057,381.591420042045 M436.1889184077057,381.591420042045 L432.16172234888364,380.74880610903506 M432.16172234888364,380.74880610903506 L427.9589392159783,380.00805691144353 M444.7180321987557,383.90175529619756 L440.5847031776552,382.6822541099545 M440.5847031776552,382.6822541099545 L436.1889191967208,381.5912821259001 M436.1889191967208,381.5912821259001 L432.1617230495936,380.74866832480024 M432.1617230495936,380.74866832480024 L427.9589398248457,380.00791924320515 M425.7000500744666,377.89509848769455 L425.7000506327998,377.8949611505004 M427.9589392159783,380.00805691144353 L426.9455312266415,379.79154594974347 M426.9455312266415,379.79154594974347 L426.14920770439016,379.51144138119616 M426.14920770439016,379.51144138119616 L425.5868989010824,379.1837906422446 M425.5868989010824,379.1837906422446 L425.275367202023,378.82460948151027 M425.275367202023,378.82460948151027 L425.2312439098427,378.4498665742969 M425.2312439098427,378.4498665742969 L425.38284392764297,378.16907192730145 M425.38284392764297,378.16907192730145 L425.7000500744666,377.89509848769455 M427.9589398248457,380.00791924320515 L426.94553181336045,379.7914083154149 M426.94553181336045,379.7914083154149 L426.1492082736328,379.5113037907416 M426.1492082736328,379.5113037907416 L425.586899457898,379.18365310311685 M425.586899457898,379.18365310311685 L425.27536775183165,378.8244719986556 M425.27536775183165,378.8244719986556 L425.2312444584288,378.4497291501611 M425.2312444584288,378.4497291501611 L425.38284447931005,378.1689345471688 M425.38284447931005,378.1689345471688 L425.7000506327998,377.8949611505004 M426.5986320172292,377.4827776997053 L426.5986325946925,377.4826404271401 M425.7000500744666,377.89509848769455 L426.5986320172292,377.4827776997053 M425.7000506327998,377.8949611505004 L426.5986325946925,377.4826404271401 M432.1649317201009,377.1873142033058 L432.16493241765113,377.1871769770587 M426.5986320172292,377.4827776997053 L427.53960645127637,377.2436680110809 M427.53960645127637,377.2436680110809 L428.6232974918262,377.0888998211716 M428.6232974918262,377.0888998211716 L429.7952977458209,377.0244678011436 M429.7952977458209,377.0244678011436 L430.8807425862214,377.0487199230566 M430.8807425862214,377.0487199230566 L431.5292665308138,377.10265169594356 M431.5292665308138,377.10265169594356 L432.1649317201009,377.1873142033058 M426.5986325946925,377.4826404271401 L427.53960704889977,377.2435307759991 M427.53960704889977,377.2435307759991 L428.62329811274896,377.0887626103535 M428.62329811274896,377.0887626103535 L429.7952983920176,377.0243306004271 M429.7952983920176,377.0243306004271 L430.88074325589486,377.04858271853783 M430.88074325589486,377.04858271853783 L431.52926721454963,377.1025144829694 M431.52926721454963,377.1025144829694 L432.16493241765113,377.1871769770587 M451.473296012645,381.65013864343416 L451.4732971339891,381.6500007180984 M432.1649317201009,377.1873142033058 L437.86666711002925,378.2039364548574 M437.86666711002925,378.2039364548574 L443.28533213164764,379.3832878407377 M443.28533213164764,379.3832878407377 L447.4865366815232,380.4646641640097 M447.4865366815232,380.4646641640097 L451.473296012645,381.65013864343416 M432.16493241765113,377.1871769770587 L437.8666679319,378.2037990692609 M437.8666679319,378.2037990692609 L443.2853330722286,379.38315027035776 M443.2853330722286,379.38315027035776 L447.48653771461323,380.4645264242659 M447.48653771461323,380.4645264242659 L451.4732971339891,381.6500007180984 M453.817924065378,416.8195648008562 L453.81792529097913,416.819421405493 M451.473296012645,381.65013864343416 L455.9851677073316,383.22021372597743 M455.9851677073316,383.22021372597743 L460.0132958763834,384.8898495074775 M460.0132958763834,384.8898495074775 L463.6286715813444,386.6890981498501 M463.6286715813444,386.6890981498501 L466.76378885180657,388.5919227644608 M466.76378885180657,388.5919227644608 L469.39604049218565,390.58818198537205 M469.39604049218565,390.58818198537205 L471.50217674049867,392.66561449404037 M471.50217674049867,392.66561449404037 L473.05974021399345,394.8097444252447 M473.05974021399345,394.8097444252447 L474.0486599919642,397.0039662358312 M474.0486599919642,397.0039662358312 L474.452775762818,399.2298517674446 M474.452775762818,399.2298517674446 L474.3072444643725,401.2438553945075 M474.3072444643725,401.2438553945075 L473.67516766657525,403.25245676804514 M473.67516766657525,403.25245676804514 L472.5567332584663,405.24084066048107 M472.5567332584663,405.24084066048107 L470.9558958704375,407.1946443602767 M470.9558958704375,407.1946443602767 L468.879872470405,409.1003191411334 M468.879872470405,409.1003191411334 L466.33837217988986,410.9453871540442 M466.33837217988986,410.9453871540442 L463.3427815650289,412.71860030841884 M463.3427815650289,412.71860030841884 L459.90524311536956,414.40996360353 M459.90524311536956,414.40996360353 L456.9966385161447,415.63835883546864 M456.9966385161447,415.63835883546864 L453.817924065378,416.8195648008562 M451.4732971339891,381.6500007180984 L455.9851689292343,383.22007555496003 M455.9851689292343,383.22007555496003 L460.0132971888522,384.88971107535144 M460.0132971888522,384.88971107535144 L463.6286729759595,386.68895943652103 M463.6286729759595,386.68895943652103 L466.76379031859545,388.59178375393884 M466.76379031859545,388.59178375393884 L469.3960420206092,390.5880426632828 M469.3960420206092,390.5880426632828 L471.5021783194165,392.6654748479524 M471.5021783194165,392.6654748479524 L473.0597418316613,394.80960444501005 M473.0597418316613,394.80960444501005 L474.0486616360677,397.00382591391104 M474.0486616360677,397.00382591391104 L474.45277742054407,399.2297110991848 M474.45277742054407,399.2297110991848 L474.307246123074,401.24371441311575 M474.307246123074,401.24371441311575 L473.67516931535187,403.2523154745885 M473.67516931535187,403.2523154745885 L472.5567348863098,405.24069905832386 M472.5567348863098,405.24069905832386 L470.9558974663202,407.1945024550041 M470.9558974663202,407.1945024550041 L468.8798740233607,409.10017694041875 M468.8798740233607,409.10017694041875 L466.33837367907995,410.94524466747805 M466.33837367907995,410.94524466747805 L463.3427829997931,412.7184575473136 M463.3427829997931,412.7184575473136 L459.90524447525587,414.4098205807229 M459.90524447525587,414.4098205807229 L456.99663981209426,415.6382156226947 M456.99663981209426,415.6382156226947 L453.81792529097913,416.819421405493 M407.2185507329752,424.380616027984 L407.2185509010563,424.38047146570085 M453.817924065378,416.8195648008562 L448.864409516382,418.397852710605 M448.864409516382,418.397852710605 L443.5422704893815,419.80874322497345 M443.5422704893815,419.80874322497345 L437.8387378434155,421.05510082646947 M437.8387378434155,421.05510082646947 L431.81367322990064,422.12135176009406 M431.81367322990064,422.12135176009406 L425.5079092622984,422.99912875338885 M425.5079092622984,422.99912875338885 L419.62885379422505,423.62183394418236 M419.62885379422505,423.62183394418236 L413.49352532611243,424.0872600595488 M413.49352532611243,424.0872600595488 L407.2185507329752,424.380616027984 M453.81792529097913,416.819421405493 L448.86441063157497,418.3977090713945 M448.86441063157497,418.3977090713945 L443.54227148511114,419.80859936789733 M443.54227148511114,419.80859936789733 L437.8387387103692,421.0549567770274 M437.8387387103692,421.0549567770274 L431.8136739601605,422.1212075461536 M431.8136739601605,422.1212075461536 L425.50790984893786,422.99898440407503 M425.50790984893786,422.99898440407503 L419.62885424657424,423.62168949885944 M419.62885424657424,423.62168949885944 L413.49352563802756,424.08711554248026 M413.49352563802756,424.08711554248026 L407.2185509010563,424.38047146570085 M407.6752454899644,425.2696821459925 L407.67524566871634,425.26953744670817 M407.2185507329752,424.380616027984 L407.6752454899644,425.2696821459925 M407.2185509010563,424.38047146570085 L407.67524566871634,425.26953744670817 M403.735853819721,427.30729470206853 L403.7358539082262,427.3071496889646 M407.6752454899644,425.2696821459925 L407.74168429245856,425.709453886609 M407.74168429245856,425.709453886609 L407.50276156213044,426.12817987816584 M407.50276156213044,426.12817987816584 L406.98849267214155,426.51000555095106 M406.98849267214155,426.51000555095106 L406.2290551028167,426.8390308495649 M406.2290551028167,426.8390308495649 L405.2548097370859,427.0993146411481 M405.2548097370859,427.0993146411481 L404.52930927502786,427.22291902809377 M404.52930927502786,427.22291902809377 L403.735853819721,427.30729470206853 M407.67524566871634,425.26953744670817 L407.7416844728333,425.7093091195743 M407.7416844728333,425.7093091195743 L407.50276173710506,426.1280350466331 M407.50276173710506,426.1280350466331 L406.9884928353698,426.50986066061256 M406.9884928353698,426.50986066061256 L406.2290552486369,426.83888590855923 M406.2290552486369,426.83888590855923 L405.254809860529,427.09916966006534 M405.254809860529,427.09916966006534 L404.52930938178883,427.22277402798034 M404.52930938178883,427.22277402798034 L403.7358539082262,427.3071496889646 M397.64463635940126,426.03978993906657 L397.6446363077548,426.039645121148 M403.735853819721,427.30729470206853 L402.46188615737697,427.34936311388856 M402.46188615737697,427.34936311388856 L401.2352663255506,427.28504965756053 M401.2352663255506,427.28504965756053 L400.10375455048796,427.12424112491675 M400.10375455048796,427.12424112491675 L399.11496632056,426.8768861989864 M399.11496632056,426.8768861989864 L398.316329432902,426.5529632371883 M398.316329432902,426.5529632371883 L397.92512619203524,426.3088158860239 M397.92512619203524,426.3088158860239 L397.64463635940126,426.03978993906657 M403.7358539082262,427.3071496889646 L402.4618862165561,427.34921809430807 M402.4618862165561,427.34921809430807 L401.23526635648653,427.2849046478815 M401.23526635648653,427.2849046478815 L400.1037545553741,427.1240961399961 M400.1037545553741,427.1240961399961 L399.1149663026927,426.87674125215193 M399.1149663026927,426.87674125215193 L398.31632939667253,426.5528183402344 M398.31632939667253,426.5528183402344 L397.92512614682136,426.30867102666997 M397.92512614682136,426.30867102666997 L397.6446363077548,426.039645121148 M352.57278921992184,398.77803363580824 L352.5727881684834,398.77789303782714 M397.64463635940126,426.03978993906657 L394.04121598016155,421.88150753136307 M394.04121598016155,421.88150753136307 L390.00291038708167,417.8705008665554 M390.00291038708167,417.8705008665554 L385.53462291918294,413.96933911304757 M385.53462291918294,413.96933911304757 L380.97385561510464,410.46329421490253 M380.97385561510464,410.46329421490253 L376.5310694510322,407.4700224448952 M376.5310694510322,407.4700224448952 L372.3240923488621,405.0102905058085 M372.3240923488621,405.0102905058085 L368.4087353822848,403.05338015906005 M368.4087353822848,403.05338015906005 L364.8030920435554,401.54559120214714 M364.8030920435554,401.54559120214714 L361.5024627200633,400.42577965381804 M361.5024627200633,400.42577965381804 L358.4874350683876,399.63357251573854 M358.4874350683876,399.63357251573854 L355.7277008441612,399.11399670881127 M355.7277008441612,399.11399670881127 L354.15002700032386,398.91033530855486 M354.15002700032386,398.91033530855486 L352.57278921992184,398.77803363580824 M397.6446363077548,426.039645121148 L394.0412158463692,421.88136335441953 M394.0412158463692,421.88136335441953 L390.0029101620497,417.8703573088058 M390.0029101620497,417.8703573088058 L385.5346225940407,413.969196158402 M385.5346225940407,413.969196158402 L380.9738551885373,410.46315180300724 M380.9738551885373,410.46315180300724 L376.5310689262505,407.4698804969174 M376.5310689262505,407.4698804969174 L372.3240917314777,405.0101489394333 M372.3240917314777,405.0101489394333 L368.4087346789451,403.05323889652277 M368.4087346789451,403.05323889652277 L364.80309126115037,401.5454501738619 M364.80309126115037,401.5454501738619 L361.5024618652682,400.42563879959096 M361.5024618652682,400.42563879959096 L358.48743414737953,399.6334317846909 M358.48743414737953,399.6334317846909 L355.72769986240917,399.1138560585711 M355.72769986240917,399.1138560585711 L354.1500259837622,398.9101946899935 M354.1500259837622,398.9101946899935 L352.5727881684834,398.77789303782714 M335.7008690803113,401.97532083866236 L335.7008676482062,401.97517974360085 M352.57278921992184,398.77803363580824 L350.32468430833086,398.7236905791392 M350.32468430833086,398.7236905791392 L348.04264162175315,398.83101308864116 M348.04264162175315,398.83101308864116 L345.7275586145353,399.09969944652556 M345.7275586145353,399.09969944652556 L342.9641823675044,399.62194564312966 M342.9641823675044,399.62194564312966 L339.9954140999876,400.4168775925336 M339.9954140999876,400.4168775925336 L337.8596560634215,401.13289103760155 M337.8596560634215,401.13289103760155 L335.7008690803113,401.97532083866236 M352.5727881684834,398.77789303782714 L350.3246832070144,398.7235499896117 M350.3246832070144,398.7235499896117 L348.042640469576,398.83087248241867 M348.042640469576,398.83087248241867 L345.72755741050383,399.0995587985092 M345.72755741050383,399.0995587985092 L342.96418110120936,399.62180491389023 M342.96418110120936,399.62180491389023 L339.9954127663174,400.4167367396905 M339.9954127663174,400.4167367396905 L337.8596546809476,401.13275007345635 M337.8596546809476,401.13275007345635 L335.7008676482062,401.97517974360085 M353.3057451733891,414.37339164592487 L353.3057441178245,414.3732486287747 M335.7008690803113,401.97532083866236 L336.59944333552227,403.83676404212855 M336.59944333552227,403.83676404212855 L337.96906414515956,405.6519762033031 M337.96906414515956,405.6519762033031 L339.80345661149045,407.41339895104596 M339.80345661149045,407.41339895104596 L342.38017749241783,409.2996788727581 M342.38017749241783,409.2996788727581 L345.51604081794966,411.102195639281 M345.51604081794966,411.102195639281 L349.14815695364194,412.788326259191 M349.14815695364194,412.788326259191 L353.3057451733891,414.37339164592487 M335.7008676482062,401.97517974360085 L336.5994419201543,403.8366226579341 M336.5994419201543,403.8366226579341 L337.9690627572616,405.6518345373441 M337.9690627572616,405.6518345373441 L339.8034552617339,407.4132570118488 M339.8034552617339,407.4132570118488 L342.38017619749417,409.29953664114794 M342.38017619749417,409.29953664114794 L345.51603959087925,411.1020531284297 M345.51603959087925,411.1020531284297 L349.1481558061322,412.78818348729396 M349.1481558061322,412.78818348729396 L353.3057441178245,414.3732486287747 M385.73921135377054,420.4651559361994 L385.7392110306787,420.46501197780003 M353.3057451733891,414.37339164592487 L357.92455679503706,415.82618583742794 M357.92455679503706,415.82618583742794 L362.92099658109345,417.1156163398742 M362.92099658109345,417.1156163398742 L368.2900883275195,418.239388201237 M368.2900883275195,418.239388201237 L373.3895214898497,419.0962914399081 M373.3895214898497,419.0962914399081 L378.70600824334656,419.7997984863584 M378.70600824334656,419.7997984863584 L382.18700623899997,420.1650772999611 M382.18700623899997,420.1650772999611 L385.73921135377054,420.4651559361994 M353.3057441178245,414.3732486287747 L357.9245558424149,415.82604259561464 M357.9245558424149,415.82604259561464 L362.92099574054794,417.1154728987601 M362.92099574054794,417.1154728987601 L368.29008760804567,418.23924458650316 M368.29008760804567,418.23924458650316 L373.38952088583744,419.0961476928328 M373.38952088583744,419.0961476928328 L378.70600776008484,419.7996546306632 M378.70600776008484,419.7996546306632 L382.1870058349616,420.1649333878786 M382.1870058349616,420.1649333878786 L385.7392110306787,420.46501197780003 M389.6230631846041,422.55313143895035 L389.62306294957705,422.552987158414 M385.73921135377054,420.4651559361994 L386.93443811488606,420.6089598236661 M386.93443811488606,420.6089598236661 L387.9561587795466,420.84070889551293 M387.9561587795466,420.84070889551293 L388.7752809706081,421.14485520599794 M388.7752809706081,421.14485520599794 L389.3625083030376,421.5058473992983 M389.3625083030376,421.5058473992983 L389.6883442295701,421.90810943353597 M389.6883442295701,421.90810943353597 L389.74341410502996,422.22672383474304 M389.74341410502996,422.22672383474304 L389.6230631846041,422.55313143895035 M385.7392110306787,420.46501197780003 L386.9344378190286,420.60881584307253 M386.9344378190286,420.60881584307253 L387.9561585069411,420.84056487915444 M387.9561585069411,420.84056487915444 L388.7752807166165,421.14471114270634 M388.7752807166165,421.14471114270634 L389.36250806235665,421.50570328030847 M389.36250806235665,421.50570328030847 L389.6883439962221,421.90796525248885 M389.6883439962221,421.90796525248885 L389.7434138728506,422.2265796045495 M389.7434138728506,422.2265796045495 L389.62306294957705,422.552987158414 M383.49873086030766,423.90126981017613 L383.49873048448364,423.9011253217767 M389.6230631846041,422.55313143895035 L389.19615403776453,422.96579261296216 M389.19615403776453,422.96579261296216 L388.5123549584349,423.3192236706601 M388.5123549584349,423.3192236706601 L387.617545272473,423.60312088898417 M387.617545272473,423.60312088898417 L386.5578413561169,423.80718240697297 M386.5578413561169,423.80718240697297 L385.3795365215907,423.9211298426872 M385.3795365215907,423.9211298426872 L384.4495473205328,423.9413312757281 M384.4495473205328,423.9413312757281 L383.49873086030766,423.90126981017613 M389.62306294957705,422.552987158414 L389.1961537928422,422.96564826878875 M389.1961537928422,422.96564826878875 L388.5123546977406,423.3190792719911 M388.5123546977406,423.3190792719911 L387.6175449911808,423.60297644654605 M387.6175449911808,423.60297644654605 L386.5578410504621,423.80703793307714 M386.5578410504621,423.80703793307714 L385.37953618887843,423.9209853512263 M385.37953618887843,423.9209853512263 L384.4495469664901,423.9411867811532 M384.4495469664901,423.9411867811532 L383.49873048448364,423.9011253217767 M345.96609980503433,416.81994233503565 L345.96609857945714,416.81979893961415 M383.49873086030766,423.90126981017613 L376.8858872809474,423.29898960824386 M376.8858872809474,423.29898960824386 L370.5048743274852,422.5013747736009 M370.5048743274852,422.5013747736009 L364.3514679231097,421.50837019025454 M364.3514679231097,421.50837019025454 L358.49726631189037,420.33047624133235 M358.49726631189037,420.33047624133235 L353.5210676748449,419.11983171565697 M353.5210676748449,419.11983171565697 L349.63314429665473,418.0150112833113 M349.63314429665473,418.0150112833113 L345.96609980503433,416.81994233503565 M383.49873048448364,423.9011253217767 L376.885886753905,423.2988452126947 M376.885886753905,423.2988452126947 L370.50487365491676,422.50123050104673 M370.50487365491676,422.50123050104673 L364.35146711070036,421.50822607087554 M364.35146711070036,421.50822607087554 L358.4972653670297,420.33033230372007 M358.4972653670297,420.33033230372007 L353.5210666179752,419.11968796494665 M353.5210666179752,419.11968796494665 L349.63314315273203,418.0148677032374 M349.63314315273203,418.0148677032374 L345.96609857945714,416.81979893961415 M345.96609980503433,416.81994233503565 L341.85113793709263,415.26335137955886 M341.85113793709263,415.26335137955886 L338.177371829178,413.6214716107173 M338.177371829178,413.6214716107173 L334.9540076725466,411.90286016805476 M334.9540076725466,411.90286016805476 L332.1844571693626,410.1135809456658 M332.1844571693626,410.1135809456658 L329.87375139098816,408.26034469411934 M329.87375139098816,408.26034469411934 L328.02670549263075,406.34973417292366 M328.02670549263075,406.34973417292366 L326.523933984084,404.16740327780184 M326.523933984084,404.16740327780184 L325.94692698955527,402.9454554559568 M325.94692698955527,402.9454554559568 L325.547224237534,401.70874093690475 M345.96609857945714,416.81979893961415 L341.851136620532,415.2632082247694 M341.851136620532,415.2632082247694 L338.1773704321302,413.6213287098923 M338.1773704321302,413.6213287098923 L334.9540062056658,411.90271753322514 M334.9540062056658,411.90271753322514 L332.1844556433239,410.1134385879453 M332.1844556433239,410.1134385879453 L329.8737498165146,408.2602026236031 M329.8737498165146,408.2602026236031 L328.0267038804809,406.34959239870506 M328.0267038804809,406.34959239870506 L326.5239323427209,404.16726184227036 M326.5239323427209,404.16726184227036 L325.94692533782217,402.9453142101826 M325.94692533782217,402.9453142101826 L325.5472225794559,401.70859988326623" stroke="black"  stroke-width="4"  fill="red"/></svg>